<?xml version="1.0" encoding="UTF-8" standalone="no"?>
<!-- Created with Inkscape (http://www.inkscape.org/) -->

<svg
   version="1.1"
   id="svg1"
   width="94.327217"
   height="87.683594"
   viewBox="0 0 94.327217 87.683594"
   xmlns="http://www.w3.org/2000/svg"
   xmlns:svg="http://www.w3.org/2000/svg">
  <defs
     id="defs1" />
  <g
     id="g1"
     transform="translate(-5.6454401,-2.7695311)">
    <path
       id="path1"
       d="M 1.3242813,-0.83229688 C 1.8633438,-1.4065156 2.1563125,-1.6526094 2.507875,-1.9572969 c 0,-0.011719 0.6210938,-0.5390625 0.984375,-0.9023437 0.9375,-0.9257813 1.1601562,-1.40625 1.1601562,-1.4414063 0,-0.1054687 -0.09375,-0.1054687 -0.1054687,-0.1054687 -0.070312,0 -0.1054688,0.023437 -0.1523438,0.1171875 -0.3046875,0.46875 -0.5039062,0.6328125 -0.7499999,0.6328125 -0.234375,0 -0.3515625,-0.1523438 -0.5039063,-0.3164063 -0.1875,-0.234375 -0.3632812,-0.4335937 -0.6914062,-0.4335937 -0.75,0 -1.2070313,0.9257812 -1.2070313,1.1367187 0,0.046875 0.035156,0.1171875 0.1171875,0.1171875 0.09375,0 0.1171875,-0.058594 0.140625,-0.1171875 0.1875,-0.4570312 0.7617188,-0.46875 0.84375,-0.46875 0.2109375,0 0.3984375,0.070312 0.6210938,0.1523438 0.3984375,0.1523437 0.515625,0.1523437 0.7734375,0.1523437 -0.3632813,0.421875 -1.1953125,1.1367188 -1.3828125,1.3007813 L 1.4531875,-1.3010469 C 0.7735,-0.63307813 0.43365625,-0.05885938 0.43365625,0.01145312 c 0,0.09375 0.09375,0.09375 0.1171875,0.09375 0.0820313,0 0.09375,-0.01171875 0.15234375,-0.12890625 0.234375,-0.33984375 0.5273438,-0.609375 0.8554688,-0.609375 0.2226562,0 0.328125,0.0820313 0.5742187,0.375 0.1640625,0.2109375 0.3515625,0.36328125 0.6328125,0.36328125 0.984375,0 1.5703125,-1.26562502 1.5703125,-1.53515622 0,-0.046875 -0.046875,-0.09375 -0.1171875,-0.09375 -0.09375,0 -0.1171875,0.058594 -0.140625,0.1289062 -0.234375,0.64453127 -0.8671875,0.83203127 -1.1953125,0.83203127 -0.1992187,0 -0.3867187,-0.0585938 -0.5859375,-0.12890625 -0.3398437,-0.12890625 -0.4921875,-0.1640625 -0.703125,-0.1640625 -0.023437,0 -0.1757812,0 -0.2695312,0.0234375 z m 0,0"
       style="fill:#000000;fill-opacity:1;fill-rule:nonzero;stroke:none"
       aria-label="z"
       transform="matrix(1.3333333,0,0,1.3333333,5.7186667,17.570667)" />
    <path
       id="path2"
       d="m 4.3475156,-6.6799531 c 0,-0.011719 0.035156,-0.1289063 0.035156,-0.1289063 0,-0.011719 0,-0.1054687 -0.1171875,-0.1054687 -0.1054688,0 -0.1171875,0.035156 -0.1523438,0.1992187 l -0.5742187,2.296875 c -1.5820313,0.058594 -3.04687503,1.3828125 -3.04687503,2.7304688 0,0.94921872 0.69140623,1.73437497 1.91015623,1.80468747 -0.082031,0.31640625 -0.1523437,0.6328125 -0.234375,0.93750003 -0.1171875,0.46875 -0.2109375,0.84375 -0.2109375,0.8789062 0,0.09375 0.070312,0.1054688 0.1171875,0.1054688 0.046875,0 0.070312,-0.011719 0.09375,-0.035156 0.023437,-0.023438 0.082031,-0.2578125 0.1171875,-0.3984375 l 0.375,-1.48828123 c 1.6054688,-0.046875 3.046875,-1.39453127 3.046875,-2.73046877 0,-0.7851562 -0.5273437,-1.6992187 -1.9101562,-1.8046875 z m -1.8984375,6.57421872 c -0.5976562,-0.0234375 -1.3125,-0.375 -1.3125,-1.37109372 0,-1.1953125 0.8554688,-2.5898438 2.34375,-2.71875 z M 3.7381406,-4.1955781 c 0.75,0.046875 1.3242188,0.5039062 1.3242188,1.3710937 0,1.1835938 -0.8554688,2.60156252 -2.3554688,2.71875002 z m 0,0"
       style="fill:#000000;fill-opacity:1;fill-rule:nonzero;stroke:none"
       aria-label="ϕ"
       transform="matrix(1.3333333,0,0,1.3333333,90.508,17.570667)" />
    <path
       id="path3"
       d="m 0.87838281,-0.58520312 c -0.0351563,0.15234375 -0.09375,0.375 -0.09375,0.421875 0,0.1875 0.140625,0.26953125 0.29296879,0.26953125 0.1171875,0 0.2929687,-0.0703125 0.3632812,-0.26953125 0.023437,-0.046875 0.3632813,-1.39453128 0.3984375,-1.58203128 0.082031,-0.328125 0.2578125,-1.0195312 0.3164063,-1.2890625 0.046875,-0.1289062 0.328125,-0.5976562 0.5625,-0.8203125 0.082031,-0.070312 0.375,-0.328125 0.796875,-0.328125 0.2578125,0 0.4101562,0.1171875 0.421875,0.1171875 -0.3046875,0.046875 -0.515625,0.2929688 -0.515625,0.5507813 0,0.1640625 0.1054687,0.3515625 0.375,0.3515625 0.2695312,0 0.5507812,-0.234375 0.5507812,-0.5859375 0,-0.3515625 -0.328125,-0.65625 -0.8320312,-0.65625 -0.6445313,0 -1.0898438,0.4921875 -1.2773438,0.7734375 -0.082031,-0.4570313 -0.4335937,-0.7734375 -0.9023437,-0.7734375 -0.45703129,0 -0.64453129,0.3867187 -0.73828129,0.5742187 -0.17578125,0.3398438 -0.3046875,0.9375 -0.3046875,0.9609375 0,0.1054688 0.09375,0.1054688 0.1171875,0.1054688 0.09375,0 0.10546875,-0.011719 0.1640625,-0.234375 0.17578125,-0.703125 0.375,-1.1835938 0.72656249,-1.1835938 0.1757813,0 0.3164063,0.082031 0.3164063,0.4570313 0,0.2109375 -0.035156,0.3164062 -0.1640625,0.8320312 z m 0,0"
       style="fill:#000000;fill-opacity:1;fill-rule:nonzero;stroke:none"
       aria-label="r"
       transform="matrix(1.3333333,0,0,1.3333333,5.9186667,86.569333)" />
    <g
       id="g3"
       aria-label="˜p&#10;f"
       transform="matrix(1.3333333,0,0,1.3333333,88.808,86.569333)">
      <path
         id="path4"
         d="M 4.1488828,-6.5031719 3.9848203,-6.6555156 c 0,0.011719 -0.375,0.4804687 -0.8203125,0.4804687 -0.2226562,0 -0.46875,-0.1523437 -0.6445312,-0.2460937 -0.2695313,-0.1640625 -0.4453125,-0.234375 -0.6210938,-0.234375 -0.375,0 -0.5625,0.2226562 -1.06640624,0.7734375 l 0.15234375,0.1523437 c 0,-0.011719 0.37499999,-0.4804687 0.82031249,-0.4804687 0.2226563,0 0.4804688,0.1523437 0.6445313,0.2578125 0.2695312,0.1523437 0.4453125,0.2226562 0.6210937,0.2226562 0.375,0 0.5625,-0.2109375 1.078125,-0.7734375 z m 0,0"
         style="fill:#000000;fill-opacity:1;fill-rule:nonzero;stroke:none" />
      <path
         id="path5"
         d="m -0.40092187,1.2194844 c -0.0820313,0.3398437 -0.09375,0.4101562 -0.5390625,0.4101562 -0.11718753,0 -0.22265623,0 -0.22265623,0.1875 0,0.082031 0.046875,0.1171875 0.1289062,0.1171875 0.26953128,0 0.55078128,-0.035156 0.83203128,-0.035156 0.328125,0 0.66796875,0.035156 0.984375,0.035156 0.0585938,0 0.1875,0 0.1875,-0.1992187 0,-0.1054688 -0.10546875,-0.1054688 -0.24609375,-0.1054688 -0.4921875,0 -0.4921875,-0.070312 -0.4921875,-0.1640625 0,-0.1171875 0.421875,-1.74609372 0.48046875,-1.99218747 0.140625,0.29296875 0.41015622,0.6328125 0.92578122,0.6328125 1.1484375,0 2.4023438,-1.45312503 2.4023438,-2.91796873 0,-0.9375 -0.5742188,-1.59375 -1.3359375,-1.59375 -0.4921875,0 -0.9726563,0.3632812 -1.3007813,0.75 -0.09375,-0.5390625 -0.52734372,-0.75 -0.89062497,-0.75 -0.45703125,0 -0.65625,0.3867187 -0.73828125,0.5742187 -0.1875,0.3398438 -0.31640625,0.9375 -0.31640625,0.9609375 0,0.1054688 0.10546875,0.1054688 0.12890625,0.1054688 0.09375,0 0.10546875,-0.011719 0.1640625,-0.234375 0.1640625,-0.703125 0.36328125,-1.1835938 0.7265625,-1.1835938 0.17578125,0 0.3046875,0.082031 0.3046875,0.4570313 0,0.234375 -0.0234375,0.3398437 -0.0703125,0.5039062 z M 1.3568906,-3.1047344 c 0.070312,-0.2695312 0.3398438,-0.5507812 0.515625,-0.703125 0.3515625,-0.3046875 0.6328125,-0.375 0.8085938,-0.375 0.3984375,0 0.6328125,0.3515625 0.6328125,0.9375 0,0.5859375 -0.328125,1.734375 -0.5039063,2.109375 -0.3398437,0.70312503 -0.8203125,1.03125003 -1.1835937,1.03125003 -0.65625002,0 -0.78515627,-0.83203125 -0.78515627,-0.890625 0,-0.0234375 0,-0.0351562 0.0234375,-0.16406253 z m 0,0"
         style="fill:#000000;fill-opacity:1;fill-rule:nonzero;stroke:none" />
      <path
         id="path6"
         d="m 7.0023984,-1.2590312 h 0.6796875 c 0.140625,0 0.234375,0 0.234375,-0.1523438 0,-0.09375 -0.09375,-0.09375 -0.2109375,-0.09375 h -0.65625 c 0.1640625,-0.890625 0.2226563,-1.2070312 0.28125,-1.4179687 0.035156,-0.1523438 0.1875,-0.2929688 0.3515625,-0.2929688 0,0 0.1992188,0 0.328125,0.082031 -0.2929687,0.09375 -0.3046875,0.3398437 -0.3046875,0.3867187 0,0.1523438 0.1171875,0.2578125 0.2695313,0.2578125 0.1992187,0 0.3984375,-0.1640625 0.3984375,-0.4335937 0,-0.3164063 -0.3398438,-0.4921875 -0.6914063,-0.4921875 -0.3046875,0 -0.6445312,0.1757812 -0.84375,0.5273437 -0.1289062,0.2578125 -0.1875,0.5742188 -0.3398437,1.3828125 H 5.9477109 c -0.140625,0 -0.2226562,0 -0.2226562,0.1523438 0,0.09375 0.082031,0.09375 0.2109375,0.09375 h 0.515625 c 0,0.046875 -0.4453125,2.5546875 -0.609375,3.2929687 C 5.8070859,2.198 5.6898984,2.7253438 5.3500547,2.7253438 c 0,0 -0.1757813,0 -0.3046875,-0.082031 0.28125,-0.09375 0.3046875,-0.3515625 0.3046875,-0.3867187 0,-0.1523438 -0.1171875,-0.2578125 -0.28125,-0.2578125 -0.1875,0 -0.3984375,0.1640625 -0.3984375,0.421875 0,0.3164062 0.328125,0.4921875 0.6796875,0.4921875 0.4453125,0 0.75,-0.4570313 0.84375,-0.609375 0.2460937,-0.46875 0.4101562,-1.3242188 0.421875,-1.40625005 z m 0,0"
         style="fill:#000000;fill-opacity:1;fill-rule:nonzero;stroke:none" />
    </g>
    <path
       id="path7"
       d="M -33.28877,19.99515 V -19.37532"
       style="fill:none;stroke:#000000;stroke-width:0.39848;stroke-linecap:butt;stroke-linejoin:miter;stroke-miterlimit:10;stroke-dasharray:none;stroke-opacity:1"
       transform="matrix(1.3333333,0,0,-1.3333333,53.484,49.357333)" />
    <path
       id="path8"
       d="M -2.07213,2.39091 C -1.69356,0.95633 -0.84995,0.27893 0,0 -0.84995,-0.27893 -1.69356,-0.95633 -2.07213,-2.39091"
       style="fill:none;stroke:#000000;stroke-width:0.39848;stroke-linecap:round;stroke-linejoin:round;stroke-miterlimit:10;stroke-dasharray:none;stroke-opacity:1"
       transform="matrix(0,1.3333333,1.3333333,0,9.0989733,75.456733)" />
    <path
       id="path9"
       d="M 23.27895,26.3312 H -25.86586"
       style="fill:none;stroke:#000000;stroke-width:0.39848;stroke-linecap:butt;stroke-linejoin:miter;stroke-miterlimit:10;stroke-dasharray:none;stroke-opacity:1"
       transform="matrix(1.3333333,0,0,-1.3333333,53.484,49.357333)" />
    <path
       id="path10"
       d="M -2.07213,2.39091 C -1.69356,0.95633 -0.84995,0.27893 0,0 -0.84995,-0.27893 -1.69356,-0.95633 -2.07213,-2.39091"
       style="fill:none;stroke:#000000;stroke-width:0.39848;stroke-linecap:round;stroke-linejoin:round;stroke-miterlimit:10;stroke-dasharray:none;stroke-opacity:1"
       transform="matrix(-1.3333333,0,0,1.3333333,18.730533,14.249067)" />
    <path
       id="path11"
       d="m 2.8360469,-2.7536016 h 0.6796875 c 0.140625,0 0.234375,0 0.234375,-0.1523437 0,-0.09375 -0.09375,-0.09375 -0.2109375,-0.09375 h -0.65625 c 0.1640625,-0.890625 0.2226562,-1.2070313 0.28125,-1.4179688 0.035156,-0.1523437 0.1875,-0.2929687 0.3515625,-0.2929687 0,0 0.1992187,0 0.328125,0.082031 -0.2929688,0.09375 -0.3046875,0.3398438 -0.3046875,0.3867188 0,0.1523437 0.1171875,0.2578125 0.2695312,0.2578125 0.1992188,0 0.3984375,-0.1640625 0.3984375,-0.4335938 0,-0.3164062 -0.3398437,-0.4921875 -0.6914062,-0.4921875 -0.3046875,0 -0.6445313,0.1757813 -0.84375,0.5273438 -0.1289063,0.2578125 -0.1875,0.5742187 -0.3398438,1.3828125 H 1.7813594 c -0.140625,0 -0.2226563,0 -0.2226563,0.1523437 0,0.09375 0.082031,0.09375 0.2109375,0.09375 h 0.515625 c 0,0.046875 -0.4453125,2.55468754 -0.609375,3.29296879 -0.035156,0.1640625 -0.1523437,0.69140621 -0.4921875,0.69140621 0,0 -0.1757812,0 -0.30468747,-0.082031 0.28124997,-0.09375 0.30468747,-0.35156251 0.30468747,-0.38671876 0,-0.15234375 -0.1171875,-0.2578125 -0.28124997,-0.2578125 -0.1875,0 -0.3984375,0.1640625 -0.3984375,0.421875 0,0.31640626 0.328125,0.49218746 0.67968747,0.49218746 0.4453125,0 0.75,-0.45703121 0.84375,-0.60937496 0.2460938,-0.46875 0.4101563,-1.32421875 0.421875,-1.40625 z m 0,0"
       style="fill:#000000;fill-opacity:1;fill-rule:nonzero;stroke:none"
       aria-label="f"
       transform="matrix(1.3333333,0,0,1.3333333,48.382667,9.316)" />
    <path
       id="path12"
       d="M 30.7358,18.05795 V -17.01111"
       style="fill:none;stroke:#000000;stroke-width:0.39848;stroke-linecap:butt;stroke-linejoin:miter;stroke-miterlimit:10;stroke-dasharray:none;stroke-opacity:1"
       transform="matrix(1.3333333,0,0,-1.3333333,53.484,49.357333)" />
    <path
       id="path13"
       d="M -2.07213,2.39091 C -1.69356,0.95633 -0.84995,0.27893 0,0 -0.84995,-0.27893 -1.69356,-0.95633 -2.07213,-2.39091"
       style="fill:none;stroke:#000000;stroke-width:0.39848;stroke-linecap:round;stroke-linejoin:round;stroke-miterlimit:10;stroke-dasharray:none;stroke-opacity:1"
       transform="matrix(0,1.3333333,1.3333333,0,94.465067,72.304453)" />
    <path
       id="path14"
       d="M -26.41423,-25.41797 H 20.7599"
       style="fill:none;stroke:#000000;stroke-width:0.39848;stroke-linecap:butt;stroke-linejoin:miter;stroke-miterlimit:10;stroke-dasharray:none;stroke-opacity:1"
       transform="matrix(1.3333333,0,0,-1.3333333,53.484,49.357333)" />
    <path
       id="path15"
       d="M -2.07213,2.39091 C -1.69356,0.95633 -0.84995,0.27893 0,0 -0.84995,-0.27893 -1.69356,-0.95633 -2.07213,-2.39091"
       style="fill:none;stroke:#000000;stroke-width:0.39848;stroke-linecap:round;stroke-linejoin:round;stroke-miterlimit:10;stroke-dasharray:none;stroke-opacity:1"
       transform="matrix(1.3333333,0,0,-1.3333333,81.42952,83.24796)" />
  </g>
</svg>
